<?xml version="1.0" encoding="UTF-8"?>
<!-- Generated by Pixelmator Pro 3.3.9 -->
<svg width="612" height="494" viewBox="0 0 612 494" xmlns="http://www.w3.org/2000/svg">
    <g id="Group">
        <path id="Path" fill="#000000" stroke="none" d="M 186.800003 289.600006 C 177.899994 289.399994 169 289.399994 160.199997 289.100006 C 147.800003 288.600006 135.300003 288 123.099998 285.700012 C 119.099998 284.899994 115.300003 283.5 111.400002 282.399994 C 111.199997 282.299988 111 282.200012 110.800003 282.100006 C 106.199997 279.700012 105.699997 276.100006 109.699997 272.899994 C 112 271.100006 114.699997 269.700012 117.5 268.5 C 126.900002 264.5 136.800003 261.700012 146.800003 259.600006 C 162.399994 256.299988 178.100006 253.399994 193.699997 250.399994 C 199.699997 249.300003 205.800003 248.199997 211.899994 247.600006 C 217.199997 247 219.800003 244.100006 221 239.300003 C 222.100006 234.899994 222.899994 230.399994 224.199997 226.100006 C 227.300003 215.700012 232.399994 206.299988 239.300003 198 C 247.399994 188.200012 257.200012 180.799988 268.700012 175.700012 C 277 172 285.700012 169.799988 294.799988 169 C 306 168.100006 316.899994 169.299988 327.5 172.799988 C 337.700012 176.200012 346.899994 181.5 355.100006 188.600006 C 364.5 196.799988 371.5 206.700012 376.600006 218.100006 C 378.100006 221.399994 379.600006 224.700012 381.399994 227.899994 C 383 230.799988 385.5 231.899994 388.799988 231.899994 C 404.100006 231.700012 419.399994 231.5 434.799988 231.600006 C 449.700012 231.700012 464.600006 232.399994 479.399994 234.700012 C 484.100006 235.399994 488.600006 236.799988 493.200012 238.100006 C 494.700012 238.5 496.100006 239.600006 497.299988 240.699997 C 499 242.199997 499 244.300003 497.799988 246.199997 C 496.299988 248.399994 494.200012 249.699997 491.899994 250.800003 C 485.399994 254.100006 478.399994 256.299988 471.399994 258.200012 C 448.200012 264.600006 424.5 268.700012 400.700012 272.399994 C 388.399994 274.299988 376 276 363.600006 277.600006 C 351 279.200012 338.299988 280.5 325.600006 281.799988 C 314 283 302.299988 284 290.600006 284.899994 C 280.200012 285.700012 269.700012 286.5 259.299988 287.100006 C 248.899994 287.700012 238.399994 288.200012 227.899994 288.700012 C 221.600006 289 215.199997 289.200012 208.899994 289.299988 C 201.5 289.399994 194.100006 289.299988 186.800003 289.299988 C 186.800003 289.299988 186.800003 289.399994 186.800003 289.600006 Z M 244.100006 265 C 244.899994 265.100006 245.600006 265.200012 246.300003 265.299988 C 250.699997 265.600006 255.100006 266 259.600006 266.200012 C 286.100006 267.399994 312.299988 265.299988 338.299988 260.299988 C 346.899994 258.700012 355.299988 256.5 363.399994 253.100006 C 364.600006 252.600006 364.899994 251.899994 364.700012 250.699997 C 363.399994 241.399994 360.299988 232.799988 355 225 C 350 217.600006 343.799988 211.299988 335.899994 207 C 323.5 200.100006 310.299988 197.399994 296.200012 199.399994 C 283 201.200012 271.399994 206.700012 261.799988 215.700012 C 252.800003 224.200012 247.300003 234.799988 244.899994 246.899994 C 243.699997 252.800003 243.5 258.899994 244.100006 265 Z M 365.899994 251.5 C 368.299988 250.300003 368.600006 248.800003 367.100006 246.899994 C 366.700012 246.300003 366.299988 245.600006 366.200012 244.899994 C 365.600006 241.899994 365.200012 238.899994 364.5 235.899994 C 361.5 222 354.799988 210.200012 343.899994 201.100006 C 326 186.100006 305.600006 181.700012 283.100006 188.299988 C 266.299988 193.200012 253.800003 203.799988 245.399994 219.100006 C 241.899994 225.399994 239.300003 232 238.800003 239.199997 C 238.399994 244.600006 238.399994 250 238.100006 255.399994 C 238.100006 256 237.600006 256.600006 237.100006 257 C 236 257.799988 234.699997 258.399994 233.600006 259.299988 C 232.5 260.200012 232.600006 261.399994 233.800003 262.100006 C 236.600006 263.899994 239.800003 264.200012 243.100006 264.700012 C 239.699997 230.100006 264.600006 201.399994 296 197.100006 C 311.100006 195 325.299988 198.100006 338.100006 206.600006 C 354.100006 217.299988 363.200012 232.399994 365.899994 251.5 Z"/>
        <path id="path1" fill="#000000" stroke="none" d="M 335.100006 304 C 318.399994 312 301.299988 313.600006 283.700012 307.899994 C 276.5 305.5 269.700012 302.100006 264 297.100006 C 264.100006 296.899994 264.200012 296.799988 264.299988 296.600006 C 265.299988 297.200012 266.299988 297.700012 267.200012 298.299988 C 272.600006 301.799988 278.200012 304.799988 284.399994 306.700012 C 293.200012 309.5 302.100006 310.5 311.299988 309.5 C 326.100006 307.899994 338.600006 301.600006 349.299988 291.5 C 350.100006 290.799988 350.899994 290.100006 351.700012 289.399994 C 352.299988 288.899994 352.899994 288.5 353 289.899994 C 354.5 288.299988 356.299988 288.200012 358.100006 288.299988 C 358.799988 288.299988 359.5 287.899994 360.200012 287.899994 C 364.100006 287.399994 367.899994 286.899994 371.799988 286.399994 C 371.899994 286.399994 372.100006 286.5 372.600006 286.700012 C 371.899994 288.799988 371.600006 291.100006 370.399994 292.899994 C 362.299988 306 351.200012 315.799988 337.399994 322.600006 C 328.600006 326.899994 319.399994 329.600006 309.700012 330.5 C 296.100006 331.799988 283 329.799988 270.299988 324.5 C 259.5 320 250 313.399994 242.199997 304.700012 C 240.600006 302.899994 239.699997 300.600006 238.5 298.5 C 238.600006 298.299988 238.699997 298.200012 238.800003 298 C 239.800003 297.899994 240.800003 297.700012 241.699997 297.700012 C 245.199997 297.600006 248.699997 297.600006 252.199997 297.5 C 252.300003 297.5 252.399994 297.5 252.5 297.5 C 255.600006 296.200012 258 297.799988 260.399994 299.299988 C 263.799988 301.399994 267 303.799988 270.5 305.600006 C 289.200012 315.799988 308.399994 316.5 327.799988 307.700012 C 329.799988 306.799988 331.700012 305.799988 333.600006 304.799988 C 334.100006 304.700012 334.600006 304.399994 335.100006 304 Z"/>
    </g>
</svg>
