<?xml version="1.0" encoding="utf-8" standalone="yes"?><!-- Generator: Adobe Illustrator 27.0.1, SVG Export Plug-In . SVG Version: 6.00 Build 0)  --><svg xmlns="http://www.w3.org/2000/svg" xmlns:xlink="http://www.w3.org/1999/xlink" version="1.1" id="Layer_1" x="0px" y="0px" viewBox="0 0 612 494" style="enable-background:new 0 0 612 494;zoom: 1;" xml:space="preserve"><style type="text/css">
        .st0{fill:#FFFFFF;}
</style><g><path class="st0" d="M186.8,289.6c-8.9-0.2-17.8-0.2-26.6-0.5c-12.4-0.5-24.9-1.1-37.1-3.4c-4-0.8-7.8-2.2-11.7-3.3 c-0.2-0.1-0.4-0.2-0.6-0.3c-4.6-2.4-5.1-6-1.1-9.2c2.3-1.8,5-3.2,7.8-4.4c9.4-4,19.3-6.8,29.3-8.9c15.6-3.3,31.3-6.2,46.9-9.2 c6-1.1,12.1-2.2,18.2-2.8c5.3-0.6,7.9-3.5,9.1-8.3c1.1-4.4,1.9-8.9,3.2-13.2c3.1-10.4,8.2-19.8,15.1-28.1 c8.1-9.8,17.9-17.2,29.4-22.3c8.3-3.7,17-5.9,26.1-6.7c11.2-0.9,22.1,0.3,32.7,3.8c10.2,3.4,19.4,8.7,27.6,15.8 c9.4,8.2,16.4,18.1,21.5,29.5c1.5,3.3,3,6.6,4.8,9.8c1.6,2.9,4.1,4,7.4,4c15.3-0.2,30.6-0.4,46-0.3c14.9,0.1,29.8,0.8,44.6,3.1 c4.7,0.7,9.2,2.1,13.8,3.4c1.5,0.4,2.9,1.5,4.1,2.6c1.7,1.5,1.7,3.6,0.5,5.5c-1.5,2.2-3.6,3.5-5.9,4.6c-6.5,3.3-13.5,5.5-20.5,7.4 c-23.2,6.4-46.9,10.5-70.7,14.2c-12.3,1.9-24.7,3.6-37.1,5.2c-12.6,1.6-25.3,2.9-38,4.2c-11.6,1.2-23.3,2.2-35,3.1 c-10.4,0.8-20.9,1.6-31.3,2.2c-10.4,0.6-20.9,1.1-31.4,1.6c-6.3,0.3-12.7,0.5-19,0.6c-7.4,0.1-14.8,0-22.1,0 C186.8,289.3,186.8,289.4,186.8,289.6z M244.1,265c0.8,0.1,1.5,0.2,2.2,0.3c4.4,0.3,8.8,0.7,13.3,0.9c26.5,1.2,52.7-0.9,78.7-5.9 c8.6-1.6,17-3.8,25.1-7.2c1.2-0.5,1.5-1.2,1.3-2.4c-1.3-9.3-4.4-17.9-9.7-25.7c-5-7.4-11.2-13.7-19.1-18 c-12.4-6.9-25.6-9.6-39.7-7.6c-13.2,1.8-24.8,7.3-34.4,16.3c-9,8.5-14.5,19.1-16.9,31.2C243.7,252.8,243.5,258.9,244.1,265z M365.9,251.5c2.4-1.2,2.7-2.7,1.2-4.6c-0.4-0.6-0.8-1.3-0.9-2c-0.6-3-1-6-1.7-9c-3-13.9-9.7-25.7-20.6-34.8 c-17.9-15-38.3-19.4-60.8-12.8c-16.8,4.9-29.3,15.5-37.7,30.8c-3.5,6.3-6.1,12.9-6.6,20.1c-0.4,5.4-0.4,10.8-0.7,16.2 c0,0.6-0.5,1.2-1,1.6c-1.1,0.8-2.4,1.4-3.5,2.3c-1.1,0.9-1,2.1,0.2,2.8c2.8,1.8,6,2.1,9.3,2.6c-3.4-34.6,21.5-63.3,52.9-67.6 c15.1-2.1,29.3,1,42.1,9.5C354.1,217.3,363.2,232.4,365.9,251.5z"></path><path class="st0" d="M335.1,304c-16.7,8-33.8,9.6-51.4,3.9c-7.2-2.4-14-5.8-19.7-10.8c0.1-0.2,0.2-0.3,0.3-0.5c1,0.6,2,1.1,2.9,1.7 c5.4,3.5,11,6.5,17.2,8.4c8.8,2.8,17.7,3.8,26.9,2.8c14.8-1.6,27.3-7.9,38-18c0.8-0.7,1.6-1.4,2.4-2.1c0.6-0.5,1.2-0.9,1.3,0.5 c1.5-1.6,3.3-1.7,5.1-1.6c0.7,0,1.4-0.4,2.1-0.4c3.9-0.5,7.7-1,11.6-1.5c0.1,0,0.3,0.1,0.8,0.3c-0.7,2.1-1,4.4-2.2,6.2 c-8.1,13.1-19.2,22.9-33,29.7c-8.8,4.3-18,7-27.7,7.9c-13.6,1.3-26.7-0.7-39.4-6c-10.8-4.5-20.3-11.1-28.1-19.8 c-1.6-1.8-2.5-4.1-3.7-6.2c0.1-0.2,0.2-0.3,0.3-0.5c1-0.1,2-0.3,2.9-0.3c3.5-0.1,7-0.1,10.5-0.2c0.1,0,0.2,0,0.3,0 c3.1-1.3,5.5,0.3,7.9,1.8c3.4,2.1,6.6,4.5,10.1,6.3c18.7,10.2,37.9,10.9,57.3,2.1c2-0.9,3.9-1.9,5.8-2.9 C334.1,304.7,334.6,304.4,335.1,304z"></path></g></svg>